grf
version=1
nRows=12
nColumns=37
inDegrees=no
endheader
time	ground_force_1_vx	ground_force_1_vy	ground_force_1_vz	ground_force_1_px	ground_force_1_py	ground_force_1_pz	ground_moment_1_mx	ground_moment_1_my	ground_moment_1_mz	ground_force_2_vx	ground_force_2_vy	ground_force_2_vz	ground_force_2_px	ground_force_2_py	ground_force_2_pz	ground_moment_2_mx	ground_moment_2_my	ground_moment_2_mz	ground_force_3_vx	ground_force_3_vy	ground_force_3_vz	ground_force_3_px	ground_force_3_py	ground_force_3_pz	ground_moment_3_mx	ground_moment_3_my	ground_moment_3_mz	ground_force_4_vx	ground_force_4_vy	ground_force_4_vz	ground_force_4_px	ground_force_4_py	ground_force_4_pz	ground_moment_4_mx	ground_moment_4_my	ground_moment_4_mz
      1.56000000	      0.00000000	     -0.00000000	      0.00000000	      0.00000000	      0.00000000	      0.00000000	      0.00000000	      0.00000000	      0.00000000	      9.38233089	     -2.77318501	   -718.58050537	   -327.18153763	  -1131.82624953	      0.00000000	      0.00000000	     -0.00000000	   -715.54344077	      0.00000000	     -0.00000000	      0.00000000	      0.00000000	      0.00000000	      0.00000000	      0.00000000	      0.00000000	      0.00000000	    -34.63600782	     15.92462842	     73.51200104	    612.25474759	   -572.24897291	      0.00000000	      0.00000000	      0.00000000	    132.40623886
      1.57000000	      0.00000000	     -0.00000000	      0.00000000	      0.00000000	      0.00000000	      0.00000000	      0.00000000	      0.00000000	      0.00000000	      8.02894592	     -2.13398314	   -714.56463623	   -325.51549269	  -1131.22004391	      0.00000000	      0.00000000	     -0.00000000	   -820.21568034	      0.00000000	     -0.00000000	      0.00000000	      0.00000000	      0.00000000	      0.00000000	      0.00000000	      0.00000000	      0.00000000	    -34.80461359	     16.33208198	     76.09460449	    602.10445656	   -564.26161505	      0.00000000	      0.00000000	     -0.00000000	    -82.26451532
      1.58000000	      0.00000000	     -0.00000000	      0.00000000	      0.00000000	      0.00000000	      0.00000000	      0.00000000	      0.00000000	      0.00000000	      5.17941761	     -0.65513420	   -716.62268066	   -324.79421889	  -1131.00971013	      0.00000000	      0.00000000	     -0.00000000	   -868.80340466	      0.00000000	     -0.00000000	      0.00000000	      0.00000000	      0.00000000	      0.00000000	      0.00000000	      0.00000000	      0.00000000	    -34.89945462	     16.02531166	     75.10375977	    606.80531803	   -563.06739087	      0.00000000	     -0.00000000	     -0.00000000	    -33.88098990
      1.59000000	      0.00000000	     -0.00000000	      0.00000000	      0.00000000	      0.00000000	      0.00000000	      0.00000000	      0.00000000	      0.00000000	      2.99149942	      2.12329292	   -719.30200195	   -323.10057120	  -1130.38369479	      0.00000000	      0.00000000	     -0.00000000	   -851.93713164	      0.00000000	     -0.00000000	      0.00000000	      0.00000000	      0.00000000	      0.00000000	      0.00000000	      0.00000000	      0.00000000	    -34.91040658	     16.52181931	     74.13567352	    606.24945551	   -565.51883187	      0.00000000	      0.00000000	     -0.00000000	   -110.94590511
      1.60000000	      0.00000000	     -0.00000000	      0.00000000	      0.00000000	      0.00000000	      0.00000000	      0.00000000	      0.00000000	      0.00000000	      1.45407248	      3.82727122	   -715.29504395	   -321.62736401	  -1128.54994499	      0.00000000	      0.00000000	     -0.00000000	   -963.62903807	      0.00000000	     -0.00000000	      0.00000000	      0.00000000	      0.00000000	      0.00000000	      0.00000000	      0.00000000	      0.00000000	    -34.74264001	     16.44797438	     75.78424835	    603.17535763	   -561.49351421	      0.00000000	      0.00000000	     -0.00000000	   -282.06675226
      1.61000000	      0.00000000	     -0.00000000	      0.00000000	      0.00000000	      0.00000000	      0.00000000	      0.00000000	      0.00000000	      0.00000000	      0.55146384	      5.39918661	   -709.09979248	   -320.89683782	  -1128.26308088	      0.00000000	      0.00000000	     -0.00000000	   -589.47870211	      0.00000000	     -0.00000000	      0.00000000	      0.00000000	      0.00000000	      0.00000000	      0.00000000	      0.00000000	      0.00000000	    -34.71540311	     16.04790228	     74.81776428	    608.79897078	   -566.53616896	      0.00000000	      0.00000000	     -0.00000000	   -111.14944400
      1.62000000	      0.00000000	     -0.00000000	      0.00000000	      0.00000000	      0.00000000	      0.00000000	      0.00000000	      0.00000000	      0.00000000	      1.05957484	      6.41738892	   -701.10546875	   -321.00775282	  -1126.39898486	      0.00000000	      0.00000000	     -0.00000000	   -415.36835061	      0.00000000	     -0.00000000	      0.00000000	      0.00000000	      0.00000000	      0.00000000	      0.00000000	      0.00000000	      0.00000000	    -34.88880013	     16.47007294	     76.39782715	    601.04412833	   -564.01935636	      0.00000000	      0.00000000	     -0.00000000	   -208.13358307
      1.63000000	      0.00000000	     -0.00000000	      0.00000000	      0.00000000	      0.00000000	      0.00000000	      0.00000000	      0.00000000	      0.00000000	      0.44605255	      8.43976688	   -698.52429199	   -320.62889486	  -1124.97759472	      0.00000000	      0.00000000	     -0.00000000	   -107.53478475	      0.00000000	     -0.00000000	      0.00000000	      0.00000000	      0.00000000	      0.00000000	      0.00000000	      0.00000000	      0.00000000	    -34.72117853	     16.35743445	     75.45471191	    606.06251294	   -564.51353734	      0.00000000	      0.00000000	     -0.00000000	   -181.40518932
      1.64000000	      0.00000000	     -0.00000000	      0.00000000	      0.00000000	      0.00000000	      0.00000000	      0.00000000	      0.00000000	      0.00000000	     -0.15046877	      8.52859116	   -692.96124268	   -320.62840555	  -1122.03305498	      0.00000000	      0.00000000	      0.00000000	    144.78423152	      0.00000000	     -0.00000000	      0.00000000	      0.00000000	      0.00000000	      0.00000000	      0.00000000	      0.00000000	      0.00000000	    -34.83360531	     16.18305320	     75.14855957	    607.99635289	   -565.62348718	      0.00000000	      0.00000000	     -0.00000000	   -214.01269624
      1.65000000	      0.00000000	     -0.00000000	      0.00000000	      0.00000000	      0.00000000	      0.00000000	      0.00000000	      0.00000000	      0.00000000	     -0.45738423	      5.51476336	   -691.99163818	   -320.67929951	  -1119.15405812	      0.00000000	      0.00000000	      0.00000000	    878.70128049	      0.00000000	     -0.00000000	      0.00000000	      0.00000000	      0.00000000	      0.00000000	      0.00000000	      0.00000000	      0.00000000	    -34.90037014	     16.13366051	     76.81312561	    599.41599631	   -564.04450982	      0.00000000	      0.00000000	      0.00000000	     24.10669656
      1.66000000	      0.00000000	     -0.00000000	      0.00000000	      0.00000000	      0.00000000	      0.00000000	      0.00000000	      0.00000000	      0.00000000	     -1.15401232	     -0.13822687	   -703.00000000	   -322.67569512	  -1115.81283339	      0.00000000	      0.00000000	      0.00000000	   1125.47991473	      0.00000000	     -0.00000000	      0.00000000	      0.00000000	      0.00000000	      0.00000000	      0.00000000	      0.00000000	      0.00000000	    -35.05018476	     15.96576997	     74.79866028	    609.55896742	   -568.79420656	      0.00000000	      0.00000000	      0.00000000	    100.30498618
      1.67000000	      0.00000000	     -0.00000000	      0.00000000	      0.00000000	      0.00000000	      0.00000000	      0.00000000	      0.00000000	      0.00000000	     -0.25603223	     -5.41377687	   -719.55114746	   -323.04134709	  -1113.83804584	      0.00000000	      0.00000000	      0.00000000	   1568.49863358	      0.00000000	     -0.00000000	      0.00000000	      0.00000000	      0.00000000	      0.00000000	      0.00000000	      0.00000000	      0.00000000	    -34.89472056	     16.27855415	     77.39786530	    597.20362407	   -563.12743906	      0.00000000	      0.00000000	     -0.00000000	    -13.07199264
